<svg id="圖層_1" data-name="圖層 1" xmlns="http://www.w3.org/2000/svg" viewBox="0 0 44.09 32"><defs><style>.cls-1{fill:#fff;}</style></defs><title>zdLogo</title><path class="cls-1" d="M31.32.8h0a5.68,5.68,0,0,0-.73-.05H24.64L1.12,28.57v0A1.53,1.53,0,0,0,.7,29.65a1.56,1.56,0,0,0,1.56,1.56H22.33a14.83,14.83,0,0,0,6.12-3.57H9.75L25.29,9.16l4.92-5.82a14.69,14.69,0,0,1,6.68,12.33c0,7-4.9,13.86-11.45,15.59h.22c9.63,0,17.43-7,17.43-15.65C43.09,8.74,38.17,2.91,31.32.8Z"/><path class="cls-1" d="M2.23,9h.65a1.33,1.33,0,0,0,1.06-.53C5,7,8.71,3,16.85,3a20.13,20.13,0,0,1,2.94.22,3.82,3.82,0,0,1,.45.06L22.55.78c-4.09,0-11.64,0-15.43,0A3.76,3.76,0,0,0,3.76,2.82c-.64,1.25-1.67,3.61-2.28,5A.83.83,0,0,0,2.23,9Z"/></svg>